<svg id="Layer_1" data-name="Layer 1" xmlns="http://www.w3.org/2000/svg" viewBox="0 0 860.19 939.01"><defs><style>.cls-1{fill:#158265;}.cls-2{fill:none;}.cls-3,.cls-5{fill:#fff;}.cls-3{stroke:#000;stroke-miterlimit:10;stroke-width:1.35px;}.cls-4{fill:#0e3529;}.cls-6{fill:#3fa86e;}</style></defs><title>Emir-Jr-Logo</title><path class="cls-1" d="M925.83,888.25h0a1212.89,1212.89,0,0,1-860.19,0h0V731.84C65.64,455.53,237,125.1,495.74,28.06h0c258.71,97,430.1,427.47,430.1,703.78Z" transform="translate(-65.64 -28.06)"/><path class="cls-2" d="M-1110-366.16" transform="translate(-65.64 -28.06)"/><path class="cls-3" d="M-1110-366.16" transform="translate(-65.64 -28.06)"/><path class="cls-4" d="M856.19,704.87V827.19a949,949,0,0,1-143.71,41.87,203.65,203.65,0,0,1,139-236.24A567.75,567.75,0,0,1,856.19,704.87Z" transform="translate(-65.64 -28.06)"/><path class="cls-4" d="M283.32,827.19A204.18,204.18,0,0,1,279,869.06l-4.1-.85a949.29,949.29,0,0,1-139.61-41V704.87a567.75,567.75,0,0,1,4.72-72A203.15,203.15,0,0,1,283.32,827.19Z" transform="translate(-65.64 -28.06)"/><path class="cls-5" d="M684.09,803.12A204.18,204.18,0,0,0,688.41,845a949,949,0,0,1-124.73,17.34q-46.16,3.3-92.44,2.12-25.73-.67-51.41-2.73-32.22-2.58-64.29-7.38-14.59-2.18-29.1-4.83c-7.8-1.42-15.59-2.91-23.36-4.53a203.38,203.38,0,0,0-139-236.24c10.7-83.64,39.31-169.79,82.32-246.53C305.4,257,391.51,169.45,495.74,130.36c10.72,4,21.24,8.58,31.58,13.6,35,17,67.77,39.51,97.8,66.24a384.26,384.26,0,0,0-50,25C498.28,280.72,434,352.92,386.9,436.45a464.75,464.75,0,0,1,57,52.17c40-70.59,92.14-133,153.81-178.06a401.38,401.38,0,0,1,80.21-45.85A623.21,623.21,0,0,1,739.81,353q1.66,2.85,3.29,5.73c-50.25,20.8-96.08,52.91-136.47,92.69-37.39,36.82-70.12,80.23-97.34,127.4a460.76,460.76,0,0,1,33.36,75.26c.79,2.36,1.61,4.71,2.37,7.08C600.8,560,681.51,474.74,779.29,432.25c24.13,57.3,40.57,117.53,48.12,176.51A203.46,203.46,0,0,0,684.09,803.12Z" transform="translate(-65.64 -28.06)"/><path class="cls-6" d="M625.12,210.2" transform="translate(-65.64 -28.06)"/></svg>